<svg width="521" height="137" viewBox="0 0 521 137" fill="none" xmlns="http://www.w3.org/2000/svg">
<path d="M33.6328 127.23C27.4609 127.23 22.1289 125.863 17.6367 123.129C13.1836 120.355 9.74609 116.566 7.32422 111.762C4.90234 106.918 3.69141 101.391 3.69141 95.1797V93.5977C3.69141 87.3086 4.92188 81.7422 7.38281 76.8984C9.88281 72.0547 13.3594 68.2656 17.8125 65.5312C22.2656 62.7969 27.5 61.4297 33.5156 61.4297C39.375 61.4297 44.4141 62.3281 48.6328 64.125C52.8906 65.9219 56.2695 67.9141 58.7695 70.1016L58.5352 89.2031H44.4727L42.0703 77.7773C41.2891 76.957 40.2539 76.3125 38.9648 75.8438C37.7148 75.3359 36.5234 75.082 35.3906 75.082C32.3438 75.082 29.8828 75.7852 28.0078 77.1914C26.1328 78.5977 24.7461 80.668 23.8477 83.4023C22.9883 86.1367 22.5586 89.5352 22.5586 93.5977V95.1797C22.5586 99.4375 23.0859 102.855 24.1406 105.434C25.1953 108.012 26.582 109.906 28.3008 111.117C30.0195 112.289 31.8555 112.875 33.8086 112.875C36.543 112.875 38.7109 112.172 40.3125 110.766C41.9141 109.359 43.0664 107.328 43.7695 104.672H59.6484L59.8828 105.023C59.1016 109.789 57.7148 113.832 55.7227 117.152C53.7305 120.434 50.957 122.934 47.4023 124.652C43.8477 126.371 39.2578 127.23 33.6328 127.23ZM66.1523 126V114.867L74.0625 113.051V47.6016L65.0391 45.7852V34.5938H92.9297V113.051L100.723 114.867V126H66.1523ZM135.117 127.23C128.711 127.23 123.223 125.883 118.652 123.188C114.121 120.453 110.645 116.664 108.223 111.82C105.801 106.938 104.59 101.293 104.59 94.8867V93.7148C104.59 87.3867 105.801 81.8008 108.223 76.957C110.645 72.1133 114.121 68.3242 118.652 65.5898C123.184 62.8164 128.633 61.4297 135 61.4297C141.406 61.4297 146.855 62.7969 151.348 65.5312C155.879 68.2656 159.355 72.0547 161.777 76.8984C164.199 81.7422 165.41 87.3477 165.41 93.7148V94.8867C165.41 101.254 164.199 106.879 161.777 111.762C159.355 116.605 155.879 120.395 151.348 123.129C146.855 125.863 141.445 127.23 135.117 127.23ZM135.117 112.875C137.852 112.875 140.059 112.133 141.738 110.648C143.418 109.164 144.648 107.074 145.43 104.379C146.25 101.684 146.66 98.5195 146.66 94.8867V93.7148C146.66 90.1602 146.25 87.0547 145.43 84.3984C144.648 81.7031 143.398 79.6133 141.68 78.1289C140 76.6055 137.773 75.8438 135 75.8438C132.266 75.8438 130.039 76.6055 128.32 78.1289C126.641 79.6133 125.41 81.7031 124.629 84.3984C123.848 87.0547 123.457 90.1602 123.457 93.7148V94.8867C123.457 98.5586 123.848 101.742 124.629 104.438C125.41 107.133 126.641 109.223 128.32 110.707C130.039 112.152 132.305 112.875 135.117 112.875ZM199.16 127.23C192.52 127.23 187.305 125.141 183.516 120.961C179.766 116.742 177.891 110.238 177.891 101.449V75.6094L171.035 73.793V62.6016H177.891H196.758V101.566C196.758 105.395 197.461 108.207 198.867 110.004C200.312 111.801 202.5 112.699 205.43 112.699C207.461 112.699 209.336 112.309 211.055 111.527C212.773 110.746 214.238 109.613 215.449 108.129V75.6094L208.242 73.793V62.6016H215.449H234.316V113.051L242.109 114.867V126H217.852L216.621 118.383C214.59 121.234 212.09 123.422 209.121 124.945C206.191 126.469 202.871 127.23 199.16 127.23ZM272.051 127.23C267.051 127.23 262.754 125.941 259.16 123.363C255.566 120.746 252.812 117.074 250.898 112.348C248.984 107.621 248.027 102.113 248.027 95.8242V94.5938C248.027 87.9531 248.984 82.1523 250.898 77.1914C252.852 72.2305 255.605 68.3633 259.16 65.5898C262.754 62.8164 266.992 61.4297 271.875 61.4297C275.312 61.4297 278.281 62.1328 280.781 63.5391C283.32 64.9062 285.527 66.8594 287.402 69.3984V47.6016L278.379 45.7852V34.5938H287.402H306.27V113.051L314.062 114.867V126H289.922L288.516 118.207C286.562 121.176 284.238 123.422 281.543 124.945C278.887 126.469 275.723 127.23 272.051 127.23ZM277.793 112.699C279.824 112.699 281.66 112.289 283.301 111.469C284.98 110.609 286.348 109.379 287.402 107.777V81.5859C286.348 79.7891 285 78.4023 283.359 77.4258C281.758 76.4492 279.941 75.9609 277.91 75.9609C275.293 75.9609 273.164 76.7422 271.523 78.3047C269.922 79.8672 268.75 82.0547 268.008 84.8672C267.266 87.6406 266.895 90.8828 266.895 94.5938V95.8242C266.895 101.137 267.715 105.277 269.355 108.246C270.996 111.215 273.809 112.699 277.793 112.699Z" fill="white"/>
<path fill-rule="evenodd" clip-rule="evenodd" d="M440.1 40.3365C432.302 27.0216 417.235 18 399.927 18C374.616 18 354.097 37.2937 354.097 61.0938C354.097 61.3796 354.1 61.6648 354.106 61.9493C337.197 63.6585 324 77.9356 324 95.2952C324 113.806 339.006 128.813 357.517 128.813H487.483C505.994 128.813 521 113.806 521 95.2952C521 77.9369 507.805 63.6605 490.898 61.9496C490.591 46.6971 476.623 34.4167 459.437 34.4167C452.147 34.4167 445.435 36.6269 440.1 40.3365ZM380.469 106.203V119H395.469V106.203H380.469ZM380.469 68.3281V81.125H395.469V68.3281H380.469ZM402.312 106.203V119H417.312V106.203H402.312ZM402.312 68.3281V81.125H417.312V68.3281H402.312ZM422.891 110.094V119H461.609V110.094L449.797 108.641V50.75L422.797 55.4375V63.875L434.75 63.9688V108.641L422.891 110.094Z" fill="#FBFBFB"/>
</svg>
