<svg width="582" height="204" viewBox="0 0 582 204" fill="none" xmlns="http://www.w3.org/2000/svg">
<g clip-path="url(#clip0_103:2)">
<rect width="582" height="208" rx="15" fill="white"/>
<path d="M60.6328 143.23C54.4609 143.23 49.1289 141.863 44.6367 139.129C40.1836 136.355 36.7461 132.566 34.3242 127.762C31.9023 122.918 30.6914 117.391 30.6914 111.18V109.598C30.6914 103.309 31.9219 97.7422 34.3828 92.8984C36.8828 88.0547 40.3594 84.2656 44.8125 81.5312C49.2656 78.7969 54.5 77.4297 60.5156 77.4297C66.375 77.4297 71.4141 78.3281 75.6328 80.125C79.8906 81.9219 83.2695 83.9141 85.7695 86.1016L85.5352 105.203H71.4727L69.0703 93.7773C68.2891 92.957 67.2539 92.3125 65.9648 91.8438C64.7148 91.3359 63.5234 91.082 62.3906 91.082C59.3438 91.082 56.8828 91.7852 55.0078 93.1914C53.1328 94.5977 51.7461 96.668 50.8477 99.4023C49.9883 102.137 49.5586 105.535 49.5586 109.598V111.18C49.5586 115.438 50.0859 118.855 51.1406 121.434C52.1953 124.012 53.582 125.906 55.3008 127.117C57.0195 128.289 58.8555 128.875 60.8086 128.875C63.543 128.875 65.7109 128.172 67.3125 126.766C68.9141 125.359 70.0664 123.328 70.7695 120.672H86.6484L86.8828 121.023C86.1016 125.789 84.7148 129.832 82.7227 133.152C80.7305 136.434 77.957 138.934 74.4023 140.652C70.8477 142.371 66.2578 143.23 60.6328 143.23ZM93.1523 142V130.867L101.062 129.051V63.6016L92.0391 61.7852V50.5938H119.93V129.051L127.723 130.867V142H93.1523ZM162.117 143.23C155.711 143.23 150.223 141.883 145.652 139.188C141.121 136.453 137.645 132.664 135.223 127.82C132.801 122.938 131.59 117.293 131.59 110.887V109.715C131.59 103.387 132.801 97.8008 135.223 92.957C137.645 88.1133 141.121 84.3242 145.652 81.5898C150.184 78.8164 155.633 77.4297 162 77.4297C168.406 77.4297 173.855 78.7969 178.348 81.5312C182.879 84.2656 186.355 88.0547 188.777 92.8984C191.199 97.7422 192.41 103.348 192.41 109.715V110.887C192.41 117.254 191.199 122.879 188.777 127.762C186.355 132.605 182.879 136.395 178.348 139.129C173.855 141.863 168.445 143.23 162.117 143.23ZM162.117 128.875C164.852 128.875 167.059 128.133 168.738 126.648C170.418 125.164 171.648 123.074 172.43 120.379C173.25 117.684 173.66 114.52 173.66 110.887V109.715C173.66 106.16 173.25 103.055 172.43 100.398C171.648 97.7031 170.398 95.6133 168.68 94.1289C167 92.6055 164.773 91.8438 162 91.8438C159.266 91.8438 157.039 92.6055 155.32 94.1289C153.641 95.6133 152.41 97.7031 151.629 100.398C150.848 103.055 150.457 106.16 150.457 109.715V110.887C150.457 114.559 150.848 117.742 151.629 120.438C152.41 123.133 153.641 125.223 155.32 126.707C157.039 128.152 159.305 128.875 162.117 128.875ZM226.16 143.23C219.52 143.23 214.305 141.141 210.516 136.961C206.766 132.742 204.891 126.238 204.891 117.449V91.6094L198.035 89.793V78.6016H204.891H223.758V117.566C223.758 121.395 224.461 124.207 225.867 126.004C227.312 127.801 229.5 128.699 232.43 128.699C234.461 128.699 236.336 128.309 238.055 127.527C239.773 126.746 241.238 125.613 242.449 124.129V91.6094L235.242 89.793V78.6016H242.449H261.316V129.051L269.109 130.867V142H244.852L243.621 134.383C241.59 137.234 239.09 139.422 236.121 140.945C233.191 142.469 229.871 143.23 226.16 143.23ZM299.051 143.23C294.051 143.23 289.754 141.941 286.16 139.363C282.566 136.746 279.812 133.074 277.898 128.348C275.984 123.621 275.027 118.113 275.027 111.824V110.594C275.027 103.953 275.984 98.1523 277.898 93.1914C279.852 88.2305 282.605 84.3633 286.16 81.5898C289.754 78.8164 293.992 77.4297 298.875 77.4297C302.312 77.4297 305.281 78.1328 307.781 79.5391C310.32 80.9062 312.527 82.8594 314.402 85.3984V63.6016L305.379 61.7852V50.5938H314.402H333.27V129.051L341.062 130.867V142H316.922L315.516 134.207C313.562 137.176 311.238 139.422 308.543 140.945C305.887 142.469 302.723 143.23 299.051 143.23ZM304.793 128.699C306.824 128.699 308.66 128.289 310.301 127.469C311.98 126.609 313.348 125.379 314.402 123.777V97.5859C313.348 95.7891 312 94.4023 310.359 93.4258C308.758 92.4492 306.941 91.9609 304.91 91.9609C302.293 91.9609 300.164 92.7422 298.523 94.3047C296.922 95.8672 295.75 98.0547 295.008 100.867C294.266 103.641 293.895 106.883 293.895 110.594V111.824C293.895 117.137 294.715 121.277 296.355 124.246C297.996 127.215 300.809 128.699 304.793 128.699Z" fill="black"/>
<path d="M351 111.295C351 92.784 366.006 77.7778 384.517 77.7778H514.483C532.994 77.7778 548 92.784 548 111.295C548 129.806 532.994 144.813 514.483 144.813H384.517C366.006 144.813 351 129.806 351 111.295Z" fill="black"/>
<path d="M441.292 98.9826C441.292 111.449 427.817 121.556 411.194 121.556C394.572 121.556 381.097 111.449 381.097 98.9826C381.097 86.5159 394.572 76.4097 411.194 76.4097C427.817 76.4097 441.292 86.5159 441.292 98.9826Z" fill="black"/>
<path d="M472.757 77.0937C472.757 100.894 452.238 120.187 426.927 120.187C401.616 120.187 381.097 100.894 381.097 77.0937C381.097 53.2937 401.616 34 426.927 34C452.238 34 472.757 53.2937 472.757 77.0937Z" fill="black"/>
<path d="M517.903 78.4618C517.903 93.9507 503.815 106.507 486.437 106.507C469.06 106.507 454.972 93.9507 454.972 78.4618C454.972 62.9729 469.06 50.4167 486.437 50.4167C503.815 50.4167 517.903 62.9729 517.903 78.4618Z" fill="black"/>
<path d="M407.469 135V122.203H422.469V135H407.469ZM407.469 97.125V84.3281H422.469V97.125H407.469ZM429.312 135V122.203H444.312V135H429.312ZM429.312 97.125V84.3281H444.312V97.125H429.312ZM449.891 135V126.094L461.75 124.641V79.9688L449.797 79.875V71.4375L476.797 66.75V124.641L488.609 126.094V135H449.891Z" fill="white"/>
</g>
<defs>
<clipPath id="clip0_103:2">
<rect width="582" height="204" fill="white"/>
</clipPath>
</defs>
</svg>
