<svg width="582" height="330" viewBox="0 0 582 330" fill="none" xmlns="http://www.w3.org/2000/svg">
<rect width="582" height="330" rx="15" fill="white"/>
<path d="M60.6328 143.23C54.4609 143.23 49.1289 141.863 44.6367 139.129C40.1836 136.355 36.7461 132.566 34.3242 127.762C31.9023 122.918 30.6914 117.391 30.6914 111.18V109.598C30.6914 103.309 31.9219 97.7422 34.3828 92.8984C36.8828 88.0547 40.3594 84.2656 44.8125 81.5312C49.2656 78.7969 54.5 77.4297 60.5156 77.4297C66.375 77.4297 71.4141 78.3281 75.6328 80.125C79.8906 81.9219 83.2695 83.9141 85.7695 86.1016L85.5352 105.203H71.4727L69.0703 93.7773C68.2891 92.957 67.2539 92.3125 65.9648 91.8438C64.7148 91.3359 63.5234 91.082 62.3906 91.082C59.3438 91.082 56.8828 91.7852 55.0078 93.1914C53.1328 94.5977 51.7461 96.668 50.8477 99.4023C49.9883 102.137 49.5586 105.535 49.5586 109.598V111.18C49.5586 115.438 50.0859 118.855 51.1406 121.434C52.1953 124.012 53.582 125.906 55.3008 127.117C57.0195 128.289 58.8555 128.875 60.8086 128.875C63.543 128.875 65.7109 128.172 67.3125 126.766C68.9141 125.359 70.0664 123.328 70.7695 120.672H86.6484L86.8828 121.023C86.1016 125.789 84.7148 129.832 82.7227 133.152C80.7305 136.434 77.957 138.934 74.4023 140.652C70.8477 142.371 66.2578 143.23 60.6328 143.23ZM93.1523 142V130.867L101.062 129.051V63.6016L92.0391 61.7852V50.5938H119.93V129.051L127.723 130.867V142H93.1523ZM162.117 143.23C155.711 143.23 150.223 141.883 145.652 139.188C141.121 136.453 137.645 132.664 135.223 127.82C132.801 122.938 131.59 117.293 131.59 110.887V109.715C131.59 103.387 132.801 97.8008 135.223 92.957C137.645 88.1133 141.121 84.3242 145.652 81.5898C150.184 78.8164 155.633 77.4297 162 77.4297C168.406 77.4297 173.855 78.7969 178.348 81.5312C182.879 84.2656 186.355 88.0547 188.777 92.8984C191.199 97.7422 192.41 103.348 192.41 109.715V110.887C192.41 117.254 191.199 122.879 188.777 127.762C186.355 132.605 182.879 136.395 178.348 139.129C173.855 141.863 168.445 143.23 162.117 143.23ZM162.117 128.875C164.852 128.875 167.059 128.133 168.738 126.648C170.418 125.164 171.648 123.074 172.43 120.379C173.25 117.684 173.66 114.52 173.66 110.887V109.715C173.66 106.16 173.25 103.055 172.43 100.398C171.648 97.7031 170.398 95.6133 168.68 94.1289C167 92.6055 164.773 91.8438 162 91.8438C159.266 91.8438 157.039 92.6055 155.32 94.1289C153.641 95.6133 152.41 97.7031 151.629 100.398C150.848 103.055 150.457 106.16 150.457 109.715V110.887C150.457 114.559 150.848 117.742 151.629 120.438C152.41 123.133 153.641 125.223 155.32 126.707C157.039 128.152 159.305 128.875 162.117 128.875ZM226.16 143.23C219.52 143.23 214.305 141.141 210.516 136.961C206.766 132.742 204.891 126.238 204.891 117.449V91.6094L198.035 89.793V78.6016H204.891H223.758V117.566C223.758 121.395 224.461 124.207 225.867 126.004C227.312 127.801 229.5 128.699 232.43 128.699C234.461 128.699 236.336 128.309 238.055 127.527C239.773 126.746 241.238 125.613 242.449 124.129V91.6094L235.242 89.793V78.6016H242.449H261.316V129.051L269.109 130.867V142H244.852L243.621 134.383C241.59 137.234 239.09 139.422 236.121 140.945C233.191 142.469 229.871 143.23 226.16 143.23ZM299.051 143.23C294.051 143.23 289.754 141.941 286.16 139.363C282.566 136.746 279.812 133.074 277.898 128.348C275.984 123.621 275.027 118.113 275.027 111.824V110.594C275.027 103.953 275.984 98.1523 277.898 93.1914C279.852 88.2305 282.605 84.3633 286.16 81.5898C289.754 78.8164 293.992 77.4297 298.875 77.4297C302.312 77.4297 305.281 78.1328 307.781 79.5391C310.32 80.9062 312.527 82.8594 314.402 85.3984V63.6016L305.379 61.7852V50.5938H314.402H333.27V129.051L341.062 130.867V142H316.922L315.516 134.207C313.562 137.176 311.238 139.422 308.543 140.945C305.887 142.469 302.723 143.23 299.051 143.23ZM304.793 128.699C306.824 128.699 308.66 128.289 310.301 127.469C311.98 126.609 313.348 125.379 314.402 123.777V97.5859C313.348 95.7891 312 94.4023 310.359 93.4258C308.758 92.4492 306.941 91.9609 304.91 91.9609C302.293 91.9609 300.164 92.7422 298.523 94.3047C296.922 95.8672 295.75 98.0547 295.008 100.867C294.266 103.641 293.895 106.883 293.895 110.594V111.824C293.895 117.137 294.715 121.277 296.355 124.246C297.996 127.215 300.809 128.699 304.793 128.699Z" fill="black"/>
<path d="M351 111.295C351 92.784 366.006 77.7778 384.517 77.7778H514.483C532.994 77.7778 548 92.784 548 111.295C548 129.806 532.994 144.813 514.483 144.813H384.517C366.006 144.813 351 129.806 351 111.295Z" fill="black"/>
<path d="M441.292 98.9826C441.292 111.449 427.817 121.556 411.194 121.556C394.572 121.556 381.097 111.449 381.097 98.9826C381.097 86.5159 394.572 76.4097 411.194 76.4097C427.817 76.4097 441.292 86.5159 441.292 98.9826Z" fill="black"/>
<path d="M472.757 77.0937C472.757 100.894 452.238 120.187 426.927 120.187C401.616 120.187 381.097 100.894 381.097 77.0937C381.097 53.2937 401.616 34 426.927 34C452.238 34 472.757 53.2937 472.757 77.0937Z" fill="black"/>
<path d="M517.903 78.4618C517.903 93.9507 503.815 106.507 486.437 106.507C469.06 106.507 454.972 93.9507 454.972 78.4618C454.972 62.9729 469.06 50.4167 486.437 50.4167C503.815 50.4167 517.903 62.9729 517.903 78.4618Z" fill="black"/>
<path d="M407.469 135V122.203H422.469V135H407.469ZM407.469 97.125V84.3281H422.469V97.125H407.469ZM429.312 135V122.203H444.312V135H429.312ZM429.312 97.125V84.3281H444.312V97.125H429.312ZM449.891 135V126.094L461.75 124.641V79.9688L449.797 79.875V71.4375L476.797 66.75V124.641L488.609 126.094V135H449.891Z" fill="white"/>
<path d="M212.984 288.477C204.547 288.477 197.141 287.07 190.766 284.258C184.438 281.445 179.516 277.32 176 271.883C172.531 266.445 170.797 259.859 170.797 252.125V200.234L160.109 198.055V184.625H204.195V198.055L193.438 200.234V252.125C193.438 256.438 194.211 260.023 195.758 262.883C197.305 265.695 199.531 267.805 202.438 269.211C205.344 270.57 208.836 271.25 212.914 271.25C217.133 271.25 220.695 270.57 223.602 269.211C226.555 267.805 228.805 265.695 230.352 262.883C231.898 260.023 232.672 256.438 232.672 252.125V200.234L221.984 198.055V184.625H266.07V198.055L255.312 200.234V252.125C255.312 259.812 253.531 266.375 249.969 271.812C246.406 277.25 241.461 281.398 235.133 284.258C228.805 287.07 221.422 288.477 212.984 288.477ZM271.484 287V273.641L282.242 271.461V200.234L271.484 198.055V184.625H315.57V198.055L304.812 200.234V271.461L315.57 273.641V287H271.484Z" fill="black"/>
<path d="M345.083 260.167C337.475 260.167 331.333 266.308 331.333 273.917C331.333 279.921 326.017 283.083 322.167 283.083C326.383 288.675 333.579 292.25 340.5 292.25C350.629 292.25 358.833 284.046 358.833 273.917C358.833 266.308 352.692 260.167 345.083 260.167ZM407.921 217.221L401.779 211.079C399.992 209.292 397.104 209.292 395.317 211.079L354.25 252.146L366.854 264.75L407.921 223.683C409.708 221.896 409.708 219.008 407.921 217.221V217.221Z" fill="black"/>
<path d="M345.5 194.125C332.04 194.125 321.125 205.04 321.125 218.5C321.125 231.96 332.04 242.875 345.5 242.875C347.748 242.875 349.562 241.06 349.562 238.812C349.562 237.756 349.156 236.808 348.506 236.077C347.883 235.373 347.477 234.425 347.477 233.396C347.477 231.148 349.292 229.333 351.54 229.333H356.333C363.808 229.333 369.875 223.267 369.875 215.792C369.875 203.821 358.96 194.125 345.5 194.125ZM330.604 218.5C328.356 218.5 326.542 216.685 326.542 214.437C326.542 212.19 328.356 210.375 330.604 210.375C332.852 210.375 334.667 212.19 334.667 214.437C334.667 216.685 332.852 218.5 330.604 218.5ZM338.729 207.667C336.481 207.667 334.667 205.852 334.667 203.604C334.667 201.356 336.481 199.542 338.729 199.542C340.977 199.542 342.792 201.356 342.792 203.604C342.792 205.852 340.977 207.667 338.729 207.667ZM352.271 207.667C350.023 207.667 348.208 205.852 348.208 203.604C348.208 201.356 350.023 199.542 352.271 199.542C354.519 199.542 356.333 201.356 356.333 203.604C356.333 205.852 354.519 207.667 352.271 207.667ZM360.396 218.5C358.148 218.5 356.333 216.685 356.333 214.437C356.333 212.19 358.148 210.375 360.396 210.375C362.644 210.375 364.458 212.19 364.458 214.437C364.458 216.685 362.644 218.5 360.396 218.5Z" fill="black"/>
</svg>
